<svg xmlns="http://www.w3.org/2000/svg" viewBox="0 0 1774 887" role="img" aria-label="LeaderHQ logo">
  <title>LeaderHQ</title>
  <g id="mark">
    <path fill="#1862EA" d="M157,359 L265,280 L373,359 L373,409 L265,330 L157,409 Z"/>
    <path fill="#06163E" d="M157,449 L265,370 L373,449 L373,499 L265,420 L157,499 Z"/>
    <path fill="#5CAC23" d="M157,539 L265,460 L373,539 L373,589 L265,510 L157,589 Z"/>
  </g>
  <g id="wordmark">
    <path fill="#06163E" d="M458 538V366H497.9V505.5H584V538ZM652.3 539.9Q629.7 539.9 612.7 531.1Q595.7 522.3 586.4 506.9Q577.1 491.5 577.1 471.9Q577.1 452.1 586.2 436.7Q595.4 421.3 611.3 412.7Q627.3 404 647.5 404Q666.9 404 682.5 412.2Q698.1 420.4 707.2 435.8Q716.2 451.1 716.2 472.5Q716.2 474.7 716.1 477.5Q715.9 480.3 715.7 482.7H608.2V460.3H695.4L680.6 467Q680.7 456.8 676.5 449.1Q672.2 441.4 664.9 437.1Q657.5 432.8 647.7 432.8Q637.8 432.8 630.3 437.1Q622.9 441.4 618.7 449.2Q614.6 456.9 614.6 467.5V473.4Q614.6 484.3 619.4 492.4Q624.2 500.5 632.9 505Q641.7 509.4 653.5 509.4Q664 509.4 671.9 506.2Q679.9 503 686.7 496.4L707.1 518.5Q697.8 529 684.1 534.4Q670.4 539.9 652.3 539.9ZM805.9 538V512.2L803.6 506.4V460.3Q803.6 448 796.1 441.2Q788.6 434.4 773 434.4Q762.6 434.4 752.3 437.7Q742.1 441 734.9 446.6L721.2 419.9Q732.1 412.1 747.3 408Q762.5 404 778.2 404Q808.6 404 825.2 418.2Q841.9 432.4 841.9 462.5V538ZM765.7 539.9Q750.3 539.9 739.2 534.7Q728.2 529.5 722.3 520.4Q716.4 511.3 716.4 499.9Q716.4 488.2 722.2 479.3Q727.9 470.4 740.5 465.4Q753 460.4 773.1 460.4H808.1V482.7H777.4Q763.8 482.7 758.8 487.1Q753.7 491.5 753.7 498.3Q753.7 505.5 759.5 509.8Q765.2 514.2 775.2 514.2Q784.8 514.2 792.5 509.7Q800.2 505.2 803.6 496.2L809.4 514Q805.3 526.6 794.2 533.2Q783.2 539.9 765.7 539.9ZM916.3 539.9Q897.8 539.9 882.8 531.5Q867.8 523.1 859.1 507.8Q850.4 492.6 850.4 471.9Q850.4 451.1 859.1 435.9Q867.8 420.7 882.8 412.3Q897.8 404 916.3 404Q933.1 404 945.6 411.3Q958.1 418.6 965 433.6Q972 448.6 972 471.9Q972 495.1 965.3 510.2Q958.6 525.3 946.2 532.6Q933.8 539.9 916.3 539.9ZM922.9 508.5Q932.4 508.5 940 504.1Q947.6 499.8 952.1 491.4Q956.6 483.1 956.6 471.9Q956.6 460.3 952.1 452.2Q947.6 444.1 940 439.7Q932.4 435.3 922.9 435.3Q913.3 435.3 905.7 439.7Q898.2 444.1 893.7 452.2Q889.1 460.3 889.1 471.9Q889.1 483.1 893.7 491.4Q898.2 499.8 905.7 504.1Q913.3 508.5 922.9 508.5ZM957.7 538V510.9L958.4 471.7L955.9 432.5V355.7H994.3V538ZM1078.2 539.9Q1055.6 539.9 1038.6 531.1Q1021.7 522.3 1012.3 506.9Q1003 491.5 1003 471.9Q1003 452.1 1012.1 436.7Q1021.3 421.3 1037.3 412.7Q1053.2 404 1073.4 404Q1092.8 404 1108.4 412.2Q1124 420.4 1133.1 435.8Q1142.2 451.1 1142.2 472.5Q1142.2 474.7 1142 477.5Q1141.8 480.3 1141.6 482.7H1034.1V460.3H1121.3L1106.5 467Q1106.6 456.8 1102.4 449.1Q1098.1 441.4 1090.8 437.1Q1083.4 432.8 1073.6 432.8Q1063.7 432.8 1056.3 437.1Q1048.8 441.4 1044.7 449.2Q1040.5 456.9 1040.5 467.5V473.4Q1040.5 484.3 1045.3 492.4Q1050.1 500.5 1058.9 505Q1067.6 509.4 1079.4 509.4Q1089.9 509.4 1097.8 506.2Q1105.8 503 1112.6 496.4L1133 518.5Q1123.7 529 1110 534.4Q1096.3 539.9 1078.2 539.9ZM1150.9 538V405.8H1187.4V443.2L1182.4 432.4Q1188.2 418.3 1201.2 411.1Q1214.2 404 1233 404V439.3Q1230.5 439 1228.5 438.8Q1226.5 438.6 1224.4 438.6Q1208.5 438.6 1198.9 447.7Q1189.2 456.7 1189.2 475.6V538Z"/>
    <path fill="#5CAC23" d="M1394.9 538V366H1434.8V538ZM1277 538V366H1316.9V538ZM1313.9 467.5V433.9H1397.8V467.5ZM1542.1 540.9Q1521.7 540.9 1504.5 534.3Q1487.2 527.6 1474.6 515.6Q1461.9 503.6 1454.9 487.4Q1447.9 471.2 1447.9 452Q1447.9 432.7 1454.9 416.6Q1461.9 400.4 1474.6 388.4Q1487.3 376.3 1504.5 369.7Q1521.7 363.1 1542 363.1Q1562.4 363.1 1579.5 369.7Q1596.6 376.3 1609.2 388.3Q1621.9 400.3 1628.9 416.5Q1635.9 432.7 1635.9 452Q1635.9 471.3 1628.9 487.5Q1621.9 503.7 1609.2 515.7Q1596.6 527.7 1579.5 534.3Q1562.4 540.9 1542.1 540.9ZM1542 507.2Q1553.5 507.2 1563.2 503.1Q1573 499.1 1580.3 491.8Q1587.5 484.4 1591.6 474.3Q1595.7 464.2 1595.7 452Q1595.7 439.7 1591.6 429.7Q1587.6 419.6 1580.3 412.2Q1573 404.9 1563.3 400.9Q1553.5 396.8 1542 396.8Q1530.5 396.8 1520.7 400.9Q1510.9 404.9 1503.5 412.3Q1496.2 419.6 1492.2 429.7Q1488.1 439.8 1488.1 452Q1488.1 464.1 1492.2 474.3Q1496.2 484.4 1503.5 491.8Q1510.8 499.2 1520.6 503.2Q1530.4 507.2 1542 507.2Z"/>
    <path fill="#5CAC23" d="M1538.2,493.4 L1560.4,469.5 L1635.7,540.0 L1613.5,563.8 Z"/>
    <path fill="#06163E" d="M1671.5 383V363H1675.9L1685 376.8H1682.7L1691.7 363H1696.1L1696.2 383H1691.1L1691 370.3H1692L1685 380.9H1682.6L1675.4 370.3H1676.5V383ZM1656.7 383V367.1H1649.9V363H1668.9V367.1H1662.1V383Z"/>
  </g>
</svg>